<?xml version="1.0" encoding="UTF-8"?>
<svg width="16px" height="16px" viewBox="0 0 16 16" version="1.1" xmlns="http://www.w3.org/2000/svg" xmlns:xlink="http://www.w3.org/1999/xlink">
    <title>59D794C2-AB0E-4FF0-9406-64F4CA9AB3B3</title>
    <defs>
        <polygon id="path-1" points="0 0 6.4749 0 6.4749 10.6587205 0 10.6587205"></polygon>
        <polygon id="path-3" points="0 -1.77635684e-15 12.35 -1.77635684e-15 12.35 7.1239 0 7.1239"></polygon>
        <polygon id="path-5" points="8.8817842e-16 0 6.4738 0 6.4738 10.6588088 8.8817842e-16 10.6588088"></polygon>
    </defs>
    <g id="🌅-19.-Pictures-&amp;-3D-Scans" stroke="none" stroke-width="1" fill="none" fill-rule="evenodd">
        <g id="[Apr-2021]-19.0.0-Pictures-&amp;-3D-scans" transform="translate(-17.000000, -180.000000)">
            <g id="List-View-#2" transform="translate(1.000000, 104.000000)">
                <g id="02-Atoms-/-List-View-Item-/-New-Page" transform="translate(0.000000, 56.000000)">
                    <g id="Cell-Content" transform="translate(16.000000, 16.000000)">
                        <g id="Icons/ListView/3dScan" transform="translate(0.000000, 4.000000)">
                            <g id="Group-10" transform="translate(1.000000, 0.000000)">
                                <g id="Group-3" transform="translate(0.000000, 5.105279)">
                                    <mask id="mask-2" fill="white">
                                        <use xlink:href="#path-1"></use>
                                    </mask>
                                    <g id="Clip-2"></g>
                                    <path d="M1.0369,7.01612052 L5.2219,9.39412052 C5.3679,9.47812052 5.5489,9.37212052 5.5489,9.20412052 L5.5489,3.71312052 C5.5489,3.63212052 5.5049,3.55912052 5.4349,3.52012052 L1.2499,1.24612052 C1.1039,1.16612052 0.9259,1.27212052 0.9259,1.43812052 L0.9259,6.82512052 C0.9259,6.90412052 0.9679,6.97612052 1.0369,7.01612052 L1.0369,7.01612052 Z M5.7589,10.6591205 C5.6379,10.6591205 5.5159,10.6271205 5.4059,10.5641205 L0.4729,7.76012052 C0.1809,7.59412052 -0.0001,7.28312052 -0.0001,6.94712052 L-0.0001,0.716120524 C-0.0001,0.461120524 0.1309,0.231120524 0.3499,0.101120524 C0.5689,-0.0288794757 0.8339,-0.0338794757 1.0569,0.0881205243 L5.9869,2.76712052 C6.2869,2.93012052 6.4749,3.24512052 6.4749,3.58812052 L6.4749,9.94212052 C6.4749,10.2001205 6.3419,10.4311205 6.1189,10.5601205 C6.0069,10.6261205 5.8829,10.6591205 5.7589,10.6591205 L5.7589,10.6591205 Z" id="Fill-1" fill="#00A7E2" mask="url(#mask-2)"></path>
                                </g>
                                <g id="Group-6" transform="translate(0.825500, -0.000000)">
                                    <mask id="mask-4" fill="white">
                                        <use xlink:href="#path-3"></use>
                                    </mask>
                                    <g id="Clip-5"></g>
                                    <path d="M1.533,3.7339 L6.033,6.1169 C6.097,6.1509 6.173,6.1509 6.237,6.1179 L10.805,3.7349 C10.962,3.6529 10.962,3.4269 10.805,3.3459 L6.237,0.9769 C6.173,0.9449 6.098,0.9449 6.034,0.9779 L1.534,3.3459 C1.377,3.4279 1.377,3.6519 1.533,3.7339 L1.533,3.7339 Z M6.135,7.1239 C6.019,7.1239 5.904,7.0959 5.8,7.0399 L0.381,4.1719 C0.146,4.0469 0,3.8049 0,3.5379 C0,3.2719 0.147,3.0299 0.383,2.9059 L5.7,0.1079 C5.971,-0.0351 6.294,-0.0361 6.566,0.1049 L11.964,2.9039 C12.202,3.0269 12.349,3.2699 12.35,3.5379 C12.35,3.8059 12.203,4.0499 11.965,4.1739 L6.466,7.0419 C6.362,7.0969 6.248,7.1239 6.135,7.1239 L6.135,7.1239 Z" id="Fill-4" fill="#00A7E2" mask="url(#mask-4)"></path>
                                </g>
                                <g id="Group-9" transform="translate(7.616200, 5.105191)">
                                    <mask id="mask-6" fill="white">
                                        <use xlink:href="#path-5"></use>
                                    </mask>
                                    <g id="Clip-8"></g>
                                    <path d="M0.925,3.71300876 L0.925,9.20400876 C0.925,9.37200876 1.107,9.47800876 1.253,9.39500876 L5.438,7.01600876 C5.506,6.97700876 5.549,6.90400876 5.549,6.82500876 L5.549,1.43900876 C5.549,1.27200876 5.371,1.16700876 5.224,1.24600876 L1.04,3.52000876 C0.969,3.55900876 0.925,3.63200876 0.925,3.71300876 M0.715,10.6590088 C0.592,10.6590088 0.467,10.6260088 0.355,10.5610088 C0.133,10.4310088 8.8817842e-16,10.2000088 8.8817842e-16,9.94200876 L8.8817842e-16,3.58800876 C8.8817842e-16,3.24500876 0.187,2.93000876 0.488,2.76600876 L5.417,0.0880087631 C5.641,-0.0339912369 5.905,-0.0289912369 6.124,0.102008763 C6.343,0.232008763 6.474,0.462008763 6.474,0.717008763 L6.474,6.94700876 C6.474,7.28300876 6.294,7.59400876 6.001,7.76000876 L1.069,10.5640088 C0.958,10.6270088 0.837,10.6590088 0.715,10.6590088" id="Fill-7" fill="#00A7E2" mask="url(#mask-6)"></path>
                                </g>
                            </g>
                        </g>
                    </g>
                </g>
            </g>
        </g>
    </g>
</svg>