<?xml version="1.0" encoding="utf-8"?>
<!-- Generator: Adobe Illustrator 16.0.0, SVG Export Plug-In . SVG Version: 6.00 Build 0)  -->
<!DOCTYPE svg PUBLIC "-//W3C//DTD SVG 1.1//EN" "http://www.w3.org/Graphics/SVG/1.1/DTD/svg11.dtd">
<svg version="1.1" id="Layer_1" xmlns="http://www.w3.org/2000/svg" xmlns:xlink="http://www.w3.org/1999/xlink" x="0px" y="0px"
	 width="512px" height="512px" viewBox="0 0 512 512" enable-background="new 0 0 512 512" xml:space="preserve">
<g id="_28">
	<path d="M476.661,377.702l-31.262-44.975c-4.268-6.114-6.562-13.385-6.582-20.841V182.818C438.817,81.851,356.969,0,256,0
		C155.032,0,73.182,81.851,73.182,182.818v129.07c-0.019,7.455-2.315,14.728-6.581,20.84l-31.262,44.975
		c-13.529,14.99-12.345,38.11,2.646,51.642c6.696,6.043,15.391,9.399,24.412,9.419h104.024
		c10.047,49.474,58.297,81.437,107.77,71.391c35.975-7.304,64.087-35.418,71.392-71.391h104.024
		c20.193-0.048,36.524-16.456,36.477-36.649C486.06,393.094,482.705,384.398,476.661,377.702L476.661,377.702z M256,475.326
		c-23.187-0.065-43.827-14.703-51.554-36.563h103.11C299.825,460.623,279.187,475.261,256,475.326z M62.396,402.199
		c0.826-0.767,1.562-1.626,2.193-2.561l31.993-46.068c8.535-12.227,13.128-26.772,13.164-41.684V182.818
		c0-80.773,65.48-146.254,146.255-146.254c80.774,0,146.254,65.48,146.254,146.254v129.07c0.036,14.91,4.63,29.455,13.163,41.683
		l31.993,46.069c0.632,0.934,1.367,1.793,2.195,2.56L62.396,402.199L62.396,402.199z"/>
</g>
</svg>
