<svg xmlns="http://www.w3.org/2000/svg" xmlns:xlink="http://www.w3.org/1999/xlink" width="166" height="31" viewBox="0 0 166 31">
    <defs>
        <path id="zrc8qbgb4a" d="M0.091 0.245L16.272 0.245 16.272 28.534 0.091 28.534z"/>
    </defs>
    <g fill="none" fill-rule="evenodd">
        <path fill="#567175" d="M14.728.664L0 24.004v1.175h14.869v4.02h1.239v-4.02h3.303v-1.205h-3.303V.664h-1.38zm.14 2.082v21.228H1.474L14.87 2.746z"/>
        <g>
            <path fill="#567175" d="M17.96.245h-1.244v21.317c0 3.186-3.443 5.777-7.676 5.777-4.232 0-7.675-2.591-7.675-5.777V.245H.12v21.317c0 3.845 4.001 6.972 8.92 6.972 4.92 0 8.92-3.127 8.92-6.972V.245zM33.105 17.378c4.004 0 7.26-3.843 7.26-8.566 0-4.724-3.256-8.567-7.26-8.567h-12.24v28.29h1.245V17.377h1.63l.06.05 13.01 11.106h1.873L25.614 17.378h7.49zM22.11 16.183V1.44h10.995c3.317 0 6.016 3.307 6.016 7.372 0 4.064-2.699 7.37-6.016 7.37H22.11z" transform="translate(22.089)"/>
            <path fill="#00A7E2" d="M52.067 12.724c-4.168-1.14-6.722-2.015-6.722-5.506V6.42c0-3.44 3.438-4.98 6.846-4.98 3.774 0 6.846 2.59 6.846 5.777v1.394h1.245V7.218c0-3.845-3.63-6.973-8.091-6.973-4.764 0-8.091 2.54-8.091 6.176v.797c0 4.57 4.05 5.677 7.622 6.654 4.19 1.146 8.145 2.227 8.145 7.69 0 3.186-3.444 5.777-7.676 5.777-4.233 0-7.676-2.591-7.676-5.777v-.598H43.27v.598c0 3.845 4.002 6.973 8.92 6.973 4.92 0 8.921-3.128 8.921-6.973 0-6.364-5.015-7.736-9.044-8.838M74.596.245h-10.58v28.29h1.244V17.377h9.336c4.003 0 7.26-3.843 7.26-8.566 0-4.724-3.257-8.567-7.26-8.567m0 15.938H65.26V1.44h9.336c3.318 0 6.016 3.307 6.016 7.372 0 4.064-2.698 7.37-6.016 7.37M102.204 23.753l2.312 4.781h1.373L92.212.245h-1.21l-13.677 28.29h1.373l2.312-4.782h21.194zM91.607 1.833l10.02 20.725h-20.04l10.02-20.725zM123.949 26.384l-.59.188c-.021.008-2.439.767-5.198.767-3.489 0-6.769-1.344-9.235-3.787-2.472-2.446-3.835-5.7-3.835-9.162 0-3.463 1.363-6.716 3.835-9.163 2.466-2.442 5.746-3.787 9.235-3.787 2.76 0 5.177.76 5.2.768l.588.187.392-1.134-.59-.188c-.104-.034-2.62-.828-5.59-.828-3.828 0-7.424 1.474-10.128 4.15-2.7 2.67-4.186 6.219-4.186 9.995 0 3.776 1.487 7.325 4.186 9.995 2.704 2.676 6.3 4.15 10.128 4.15 2.97 0 5.486-.794 5.59-.829l.59-.188-.392-1.134z" transform="translate(22.089)"/>
            <g transform="translate(22.089) translate(126.991)">
                <mask id="rmrriqpdcb" fill="#fff">
                    <use xlink:href="#zrc8qbgb4a"/>
                </mask>
                <path fill="#00A7E2" d="M16.272 1.44L16.272 0.245 0.091 0.245 0.091 28.534 16.272 28.534 16.272 27.339 1.335 27.339 1.335 14.987 9.633 14.987 9.633 13.792 1.335 13.792 1.335 1.44z" mask="url(#rmrriqpdcb)"/>
            </g>
        </g>
    </g>
</svg>
