<?xml version="1.0" encoding="utf-8"?>
<!-- Generator: Adobe Illustrator 16.0.0, SVG Export Plug-In . SVG Version: 6.00 Build 0)  -->
<!DOCTYPE svg PUBLIC "-//W3C//DTD SVG 1.1//EN" "http://www.w3.org/Graphics/SVG/1.1/DTD/svg11.dtd">
<svg version="1.1" id="Layer_1" xmlns="http://www.w3.org/2000/svg" xmlns:xlink="http://www.w3.org/1999/xlink" x="0px" y="0px"
	 width="200px" height="200px" viewBox="0 0 200 200" enable-background="new 0 0 200 200" xml:space="preserve">
<g>
	<path fill="#010101" d="M100,0C44.859,0,0,44.859,0,100s44.859,100,100,100s100-44.859,100-100S155.141,0,100,0z M189.746,95h-20
		C167.281,60.395,139.605,32.715,105,30.254v-20C150.629,12.777,187.223,49.371,189.746,95z M100,40c33.082,0,60,26.914,60,60
		s-26.918,60-60,60s-60-26.914-60-60S66.918,40,100,40z M100,190c-49.625,0-90-40.375-90-90c0-47.934,37.707-87.129,85-89.746v20
		C58.734,32.836,30,63.09,30,100c0,38.598,31.402,70,70,70c36.91,0,67.164-28.734,69.746-65h20C187.129,152.297,147.941,190,100,190
		z"/>
	<path fill="#010101" d="M95,102.758v26.691c-7.523-1.598-10.367-6.398-10.559-6.738c-1.246-2.43-4.219-3.41-6.68-2.184
		c-2.469,1.234-3.469,4.238-2.234,6.707c0.234,0.469,5.414,10.402,19.473,12.395V145c0,2.766,2.238,5,5,5s5-2.234,5-5v-5.414
		c8.77-1.367,20-6.469,20-19.586c0-9.539-9.801-16.336-20-22.758V70.551c7.605,1.613,10.418,6.488,10.527,6.684
		c1.234,2.469,4.23,3.465,6.711,2.238c2.469-1.234,3.469-4.238,2.234-6.707c-0.234-0.469-5.414-10.402-19.473-12.395V55
		c0-2.766-2.238-5-5-5s-5,2.234-5,5v5.414C86.23,61.781,75,66.883,75,80C75,89.539,84.801,96.336,95,102.758z M115,120
		c0,6.129-5.633,8.496-10,9.418v-20.23C110.406,112.891,115,116.766,115,120z M95,70.582v20.23C89.594,87.109,85,83.234,85,80
		C85,73.871,90.633,71.504,95,70.582z"/>
</g>
</svg>
