<?xml version="1.0" encoding="utf-8"?>
<!-- Generator: Adobe Illustrator 16.0.0, SVG Export Plug-In . SVG Version: 6.00 Build 0)  -->
<!DOCTYPE svg PUBLIC "-//W3C//DTD SVG 1.1//EN" "http://www.w3.org/Graphics/SVG/1.1/DTD/svg11.dtd">
<svg version="1.1" id="Layer_1" xmlns="http://www.w3.org/2000/svg" xmlns:xlink="http://www.w3.org/1999/xlink" x="0px" y="0px"
	 width="200px" height="200px" viewBox="0 0 200 200" enable-background="new 0 0 200 200" xml:space="preserve">
<path fill="#010101" d="M198.535,101.465l-19.996-19.996c-0.004-0.004-0.004-0.004-0.008-0.008l-69.996-69.996
	C107.598,10.527,106.324,10,105,10H95c-1.324,0-2.598,0.527-3.535,1.465L21.469,81.461c-0.004,0.004-0.004,0.004-0.008,0.008
	L1.465,101.465c-1.953,1.953-1.953,5.117,0,7.07s5.117,1.953,7.07,0L20,97.07V175c0,6.031,3.996,15,15,15h130
	c11.004,0,15-8.969,15-15V97.07l11.465,11.465c0.977,0.977,2.258,1.465,3.535,1.465s2.559-0.488,3.535-1.465
	C200.488,106.582,200.488,103.418,198.535,101.465z M80,180v-64.941c0.059-2.309,0.973-5.059,5-5.059h30c4.027,0,4.941,2.75,5,5v65
	H80z M170,174.941c-0.059,2.309-0.973,5.059-5,5.059h-35v-65c0-6.031-3.996-15-15-15H85c-11.004,0-15,8.969-15,15v65H35
	c-4.027,0-4.941-2.75-5-5V87.07L97.07,20h5.859L170,87.07V174.941z"/>
</svg>
