<?xml version="1.0" encoding="utf-8"?>
<!-- Generator: Adobe Illustrator 16.0.0, SVG Export Plug-In . SVG Version: 6.00 Build 0)  -->
<!DOCTYPE svg PUBLIC "-//W3C//DTD SVG 1.1//EN" "http://www.w3.org/Graphics/SVG/1.1/DTD/svg11.dtd">
<svg version="1.1" id="Layer_1" xmlns="http://www.w3.org/2000/svg" xmlns:xlink="http://www.w3.org/1999/xlink" x="0px" y="0px"
	 width="200px" height="200px" viewBox="0 0 200 200" enable-background="new 0 0 200 200" xml:space="preserve">
<g>
	<path d="M100,0C44.858,0,0,44.861,0,100c0,55.137,44.858,100,100,100s100-44.863,100-100C200,44.861,155.142,0,100,0z M100,190
		c-49.624,0-90-40.371-90-90c0-49.627,40.376-90,90-90s90,40.373,90,90C190,149.629,149.624,190,100,190z"/>
	<path d="M100,70c5.518,0,10-4.478,10-10.002c0-5.521-4.482-9.998-10-9.998s-10,4.478-10,9.998C90,65.522,94.482,70,100,70z"/>
	<polygon points="110,80 90,80 80,80 80,90 90,90 90,140 82.69,140 82.69,150 120,150 120,140 110,140 	"/>
</g>
</svg>
