<?xml version="1.0" encoding="utf-8"?>
<!-- Generator: Adobe Illustrator 16.0.0, SVG Export Plug-In . SVG Version: 6.00 Build 0)  -->
<!DOCTYPE svg PUBLIC "-//W3C//DTD SVG 1.1//EN" "http://www.w3.org/Graphics/SVG/1.1/DTD/svg11.dtd">
<svg version="1.1" id="Layer_1" xmlns="http://www.w3.org/2000/svg" xmlns:xlink="http://www.w3.org/1999/xlink" x="0px" y="0px"
	 width="200px" height="200px" viewBox="0 0 200 200" enable-background="new 0 0 200 200" xml:space="preserve">
<g>
	<path fill="#010101" d="M175,10H25C11.215,10,0,21.215,0,35v90c0,13.785,11.215,25,25,25h25v35c0,2.023,1.219,3.848,3.086,4.617
		C53.707,189.879,54.355,190,55,190c1.301,0,2.578-0.508,3.535-1.465L97.07,150H175c13.785,0,25-11.215,25-25V35
		C200,21.215,188.785,10,175,10z M190,125c0,8.273-6.73,15-15,15H95c-1.324,0-2.598,0.527-3.535,1.465L60,172.93V145
		c0-2.766-2.238-5-5-5H25c-8.27,0-15-6.727-15-15V35c0-8.273,6.73-15,15-15h150c8.27,0,15,6.727,15,15V125z"/>
	<path fill="#010101" d="M165,60H35c-2.762,0-5,2.234-5,5s2.238,5,5,5h130c2.762,0,5-2.234,5-5S167.762,60,165,60z"/>
	<path fill="#010101" d="M125,90H35c-2.762,0-5,2.234-5,5s2.238,5,5,5h90c2.762,0,5-2.234,5-5S127.762,90,125,90z"/>
</g>
</svg>
