<?xml version="1.0" encoding="utf-8"?>
<!-- Generator: Adobe Illustrator 16.0.0, SVG Export Plug-In . SVG Version: 6.00 Build 0)  -->
<!DOCTYPE svg PUBLIC "-//W3C//DTD SVG 1.1//EN" "http://www.w3.org/Graphics/SVG/1.1/DTD/svg11.dtd">
<svg version="1.1" id="Layer_1" xmlns="http://www.w3.org/2000/svg" xmlns:xlink="http://www.w3.org/1999/xlink" x="0px" y="0px"
	 width="200px" height="200px" viewBox="0 0 200 200" enable-background="new 0 0 200 200" xml:space="preserve">
<path fill="#010101" d="M185,180H15c-11.004,0-15-8.969-15-15V25c0-6.031,3.996-15,15-15h45c6.871,0,12.875,5.805,13.535,6.465
	L97.07,40H185c11.004,0,15,8.969,15,15v110C200,171.031,196.004,180,185,180z M15,20c-4.027,0-4.941,2.75-5,5.059V165
	c0.059,2.25,0.973,5,5,5h170c4.027,0,4.941-2.75,5-5.059V55c-0.059-2.25-0.973-5-5-5H95c-1.324,0-2.598-0.527-3.535-1.465l-25-25
	C65.023,22.117,61.957,20,60,20H15z"/>
</svg>
