<?xml version="1.0" encoding="utf-8"?>
<!-- Generator: Adobe Illustrator 16.0.0, SVG Export Plug-In . SVG Version: 6.00 Build 0)  -->
<!DOCTYPE svg PUBLIC "-//W3C//DTD SVG 1.1//EN" "http://www.w3.org/Graphics/SVG/1.1/DTD/svg11.dtd">
<svg version="1.1" id="Layer_1" xmlns="http://www.w3.org/2000/svg" xmlns:xlink="http://www.w3.org/1999/xlink" x="0px" y="0px"
	 width="200px" height="200px" viewBox="0 0 200 200" enable-background="new 0 0 200 200" xml:space="preserve">
<g>
	<path fill="#010101" d="M30,20H10C4.477,20,0,24.477,0,30v20c0,5.523,4.477,10,10,10h20c5.523,0,10-4.477,10-10V30
		C40,24.477,35.523,20,30,20z M30,50H10V30h20V50z"/>
	<path fill="#010101" d="M55,50h110c2.762,0,5-2.234,5-5V35c0-2.766-2.238-5-5-5H55c-2.762,0-5,2.234-5,5v10
		C50,47.766,52.238,50,55,50z"/>
	<path fill="#010101" d="M197.07,122.93c-3.902-3.906-10.238-3.906-14.141,0L130,175.859l-12.93-12.93
		c-3.902-3.906-10.238-3.906-14.141,0c-3.906,3.906-3.906,10.234,0,14.141l20,20c1.949,1.953,4.512,2.93,7.07,2.93
		s5.121-0.977,7.07-2.93l60-60C200.977,133.164,200.977,126.836,197.07,122.93z"/>
	<path fill="#010101" d="M30,70H10C4.477,70,0,74.477,0,80v20c0,5.523,4.477,10,10,10h20c5.523,0,10-4.477,10-10V80
		C40,74.477,35.523,70,30,70z M30,100H10V80h20V100z"/>
	<path fill="#010101" d="M55,100h110c2.762,0,5-2.234,5-5V85c0-2.766-2.238-5-5-5H55c-2.762,0-5,2.234-5,5v10
		C50,97.766,52.238,100,55,100z"/>
	<path fill="#010101" d="M30,120H10c-5.523,0-10,4.477-10,10v20c0,5.523,4.477,10,10,10h20c5.523,0,10-4.477,10-10v-20
		C40,124.477,35.523,120,30,120z M30,150H10v-20h20V150z"/>
	<path fill="#010101" d="M138.535,148.535l10-10c1.43-1.43,1.859-3.578,1.086-5.449C148.844,131.215,147.02,130,145,130H55
		c-2.762,0-5,2.234-5,5v10c0,2.766,2.238,5,5,5h80C136.324,150,137.598,149.473,138.535,148.535z"/>
</g>
</svg>
