<?xml version="1.0" encoding="utf-8"?>
<!-- Generator: Adobe Illustrator 16.0.0, SVG Export Plug-In . SVG Version: 6.00 Build 0)  -->
<!DOCTYPE svg PUBLIC "-//W3C//DTD SVG 1.1//EN" "http://www.w3.org/Graphics/SVG/1.1/DTD/svg11.dtd">
<svg version="1.1" id="Layer_1" xmlns="http://www.w3.org/2000/svg" xmlns:xlink="http://www.w3.org/1999/xlink" x="0px" y="0px"
	 width="200px" height="200px" viewBox="0 0 200 200" enable-background="new 0 0 200 200" xml:space="preserve">
<g>
	<path fill="#010101" d="M195,0H5C2.238,0,0,2.234,0,5v20v20v20v130c0,2.766,2.238,5,5,5s5-2.234,5-5V70h75c2.762,0,5-2.234,5-5V45
		c0-2.766-2.238-5-5-5H10V30h185c2.762,0,5-2.234,5-5V5C200,2.234,197.762,0,195,0z M190,20H10V10h180V20z"/>
	<path fill="#010101" d="M90,105V85c0-2.766-2.238-5-5-5H45c-2.762,0-5,2.234-5,5v20c0,2.766,2.238,5,5,5h40
		C87.762,110,90,107.766,90,105z"/>
	<path fill="#010101" d="M180,145v-20c0-2.766-2.238-5-5-5H75c-2.762,0-5,2.234-5,5v20c0,2.766,2.238,5,5,5h100
		C177.762,150,180,147.766,180,145z"/>
	<path fill="#010101" d="M195,160h-60c-2.762,0-5,2.234-5,5v20c0,2.766,2.238,5,5,5h60c2.762,0,5-2.234,5-5v-20
		C200,162.234,197.762,160,195,160z"/>
</g>
</svg>
