<?xml version="1.0" encoding="utf-8"?>
<!-- Generator: Adobe Illustrator 16.0.0, SVG Export Plug-In . SVG Version: 6.00 Build 0)  -->
<!DOCTYPE svg PUBLIC "-//W3C//DTD SVG 1.1//EN" "http://www.w3.org/Graphics/SVG/1.1/DTD/svg11.dtd">
<svg version="1.1" id="Layer_1" xmlns="http://www.w3.org/2000/svg" xmlns:xlink="http://www.w3.org/1999/xlink" x="0px" y="0px"
	 width="512px" height="512px" viewBox="0 0 512 512" enable-background="new 0 0 512 512" xml:space="preserve">
<g>
	<path d="M227.094,332.956l94.971-194.615l3.644,1.782c11.696,5.71,16.58,19.875,10.87,31.571l-55.293,113.3
		c-4.9,10.051-0.729,22.175,9.321,27.082c9.931,4.828,22.225,0.632,27.084-9.312l55.285-113.309
		c15.494-31.765,2.26-70.22-29.505-85.722l-3.863-1.888c13.542-33.482-4.803-74.342-42.595-92.776
		C257.758-10.093,212.28,2.112,195.62,36.243L84.734,263.482c-27.497,56.354-34.454,120.556-20.11,185.658
		c1.328,6.033,5.346,11.127,10.894,13.841c5.54,2.705,12.06,2.73,17.616,0.072C153.278,434.285,199.597,389.303,227.094,332.956
		L227.094,332.956z M232.01,54.004c4.268-8.755,14.498-13.534,26.208-13.534c6.804,0,14.102,1.612,21.026,4.989
		c18.862,9.201,29.092,28.663,22.346,42.497L193.077,310.328c-25.901-4.852-49.818-16.523-69.572-33.952L232.01,54.004z
		 M99.636,413.561c-3.969-33.807-1.15-66.843,8.132-97.831c19.138,14.458,40.796,25.026,63.976,31.223
		C153.027,373.34,128.721,395.888,99.636,413.561z"/>
	<path d="M452.771,461.937c-4.698-10.148-16.733-14.554-26.882-9.864c-17.364,8.051-35.709,13.769-54.54,17.017
		c-3.872,0.671-6.585,0.712-8.244,0.559c-0.049-0.194-0.09-0.405-0.138-0.599c-0.916-3.945-2.18-9.348-5.686-14.806
		c-8.7-13.592-26.971-19.463-44.384-14.32c-9.096,2.689-16.766,8.181-25.034,12.595c-8.845,4.722-19.146,6.689-29.305,5.613
		c-2.842-10.627-9.216-20.297-17.712-26.599c-8.334-6.188-18.289-8.795-28.048-7.257c-10.521,1.611-18.199,7.459-23.277,11.323
		l-52.767,40.156c-8.893,6.778-10.618,19.478-3.847,28.379c6.641,8.723,19.689,10.464,28.379,3.848
		c18.701-14.231,37.419-28.429,56.087-42.708c0.842,7.022,5.953,19.195,11.201,24.095c13.104,12.238,31.983,12.628,48.587,9.071
		c4.293-0.923,47.551-14.887,46.529-19.446c5.921,26.331,30.268,34.171,54.509,30.009c22.345-3.849,44.107-10.635,64.697-20.176
		C453.054,484.113,457.468,472.077,452.771,461.937z"/>
</g>
</svg>
