<?xml version="1.0" encoding="utf-8"?>
<!-- Generator: Adobe Illustrator 16.0.0, SVG Export Plug-In . SVG Version: 6.00 Build 0)  -->
<!DOCTYPE svg PUBLIC "-//W3C//DTD SVG 1.1//EN" "http://www.w3.org/Graphics/SVG/1.1/DTD/svg11.dtd">
<svg version="1.1" id="Layer_1" xmlns="http://www.w3.org/2000/svg" xmlns:xlink="http://www.w3.org/1999/xlink" x="0px" y="0px"
	 width="512px" height="512px" viewBox="0 0 512 512" enable-background="new 0 0 512 512" xml:space="preserve">
<g>
	<g>
		<g>
			<path d="M256,0c-74.439,0-135,60.561-135,135c0,74.438,60.561,135,135,135c74.438,0,135-60.562,135-135
				C391,60.561,330.438,0,256,0z"/>
		</g>
	</g>
	<g>
		<g>
			<path d="M423.966,358.193C387.006,320.669,338.01,300,286,300h-60c-52.008,0-101.007,20.669-137.966,58.193
				C51.255,395.537,31,444.831,31,497c0,8.284,6.716,15,15,15h420c8.284,0,15-6.716,15-15
				C481,444.831,460.744,395.537,423.966,358.193z"/>
		</g>
	</g>
</g>
</svg>
