<?xml version="1.0" encoding="UTF-8"?>
<svg width="200px" height="200px" viewBox="0 0 200 200" version="1.1" xmlns="http://www.w3.org/2000/svg" xmlns:xlink="http://www.w3.org/1999/xlink">
    <title>91683CCB-8B75-427E-9878-F8AC589B9C0D</title>
    <g id="🌅-19.-Pictures-&amp;-3D-Scans" stroke="none" stroke-width="1" fill="none" fill-rule="evenodd">
        <g id="[Apr-2021]-19.1.0-3D-scans---Initial-•-Empty-State" transform="translate(-88.000000, -206.000000)">
            <g id="Main-Content" transform="translate(0.000000, 96.000000)">
                <g id="EmptyState-/-3D-Scan" transform="translate(88.000000, 110.000000)">
                    <g id="Group-41" transform="translate(18.000000, 27.000000)">
                        <path d="M145.338464,105.612956 C134.892464,105.008956 126.009464,112.919956 125.404464,123.365956 C124.800464,133.812956 132.711464,142.695956 143.157464,143.300956 C153.605464,143.904956 162.486464,135.993956 163.091464,125.547956 C163.526464,118.028956 159.235464,110.923956 152.863464,107.615956" id="Stroke-1" stroke="#CCD4D6" stroke-linecap="round" stroke-linejoin="round"></path>
                        <polyline id="Stroke-3" stroke="#CCD4D6" stroke-linecap="round" stroke-linejoin="round" points="162.993764 106.929356 152.961764 107.621356 153.648764 117.751356"></polyline>
                        <path d="M36.6177643,130.028956 C40.2097643,120.200956 35.1987643,109.413956 25.3697643,105.821956 C15.5417643,102.228956 4.7547643,107.240956 1.1617643,117.068956 C-2.4302357,126.896956 2.5817643,137.683956 12.4097643,141.276956 C19.4827643,143.861956 27.5237643,141.802956 32.5287643,136.656956" id="Stroke-5" stroke="#CCD4D6" stroke-linecap="round" stroke-linejoin="round"></path>
                        <polyline id="Stroke-7" stroke="#CCD4D6" stroke-linecap="round" stroke-linejoin="round" points="30.2647643 146.553356 32.4947643 136.748356 22.5977643 134.484356"></polyline>
                        <path d="M65.1772643,26.8458563 C69.5862643,36.3358563 80.7582643,40.4198563 90.2472643,36.0108563 C99.7382643,31.6008563 103.822264,20.4298563 99.4122643,10.9398563 C95.0032643,1.44985635 83.8312643,-2.63414365 74.3422643,1.77485635 C67.5122643,4.94885635 63.2822643,12.0898563 63.3822643,19.2688563" id="Stroke-9" stroke="#CCD4D6" stroke-linecap="round" stroke-linejoin="round"></path>
                        <polyline id="Stroke-11" stroke="#CCD4D6" stroke-linecap="round" stroke-linejoin="round" points="57.9849643 10.6691563 63.3409643 19.1801563 71.9409643 13.7821563"></polyline>
                        <path d="M139.577664,39.3209563 L81.8946643,58.1569563 C81.5736643,58.2569563 81.2296643,58.2559563 80.9096643,58.1559563 L23.6056643,39.3199563 C22.0566643,38.8379563 22.0436643,36.6509563 23.5866643,36.1499563 L80.8896643,20.5549563 C81.2226643,20.4469563 81.5806643,20.4459563 81.9136643,20.5539563 L139.596664,36.1489563 C141.142664,36.6479563 141.130664,38.8409563 139.577664,39.3209563" id="Fill-13" fill="#FFFFFF"></path>
                        <path d="M139.577664,39.3209563 L81.8946643,58.1569563 C81.5736643,58.2569563 81.2296643,58.2559563 80.9096643,58.1559563 L23.6056643,39.3199563 C22.0566643,38.8379563 22.0436643,36.6509563 23.5866643,36.1499563 L80.8896643,20.5549563 C81.2226643,20.4469563 81.5806643,20.4459563 81.9136643,20.5539563 L139.596664,36.1489563 C141.142664,36.6479563 141.130664,38.8409563 139.577664,39.3209563 Z" id="Stroke-15" stroke="#00A7E2"></path>
                        <path d="M84.7280643,141.897156 L84.7280643,65.1701563 C84.7280643,64.4501563 85.1920643,63.8121563 85.8750643,63.5881563 L142.430064,45.1301563 C143.505064,44.7791563 144.610064,45.5801563 144.610064,46.7111563 L144.610064,122.653156 C144.610064,123.365156 144.157064,123.999156 143.482064,124.228156 L86.9270643,143.472156 C85.8490643,143.839156 84.7280643,143.037156 84.7280643,141.897156" id="Fill-17" fill="#BCECF7"></path>
                        <path d="M84.7280643,141.897156 L84.7280643,65.1701563 C84.7280643,64.4501563 85.1920643,63.8121563 85.8750643,63.5881563 L142.430064,45.1301563 C143.505064,44.7791563 144.610064,45.5801563 144.610064,46.7111563 L144.610064,122.653156 C144.610064,123.365156 144.157064,123.999156 143.482064,124.228156 L86.9270643,143.472156 C85.8490643,143.839156 84.7280643,143.037156 84.7280643,141.897156 Z" id="Stroke-19" stroke="#00A7E2"></path>
                        <path d="M18.6099643,122.655956 L18.6099643,46.7159563 C18.6099643,45.5839563 19.7169643,44.7819563 20.7929643,45.1359563 L76.9309643,63.5869563 C77.6139643,63.8109563 78.0749643,64.4489563 78.0749643,65.1669563 L78.0749643,141.891956 C78.0749643,143.033956 76.9519643,143.835956 75.8729643,143.465956 L19.7339643,124.228956 C19.0619643,123.998956 18.6099643,123.366956 18.6099643,122.655956" id="Fill-21" fill="#E6F6FC"></path>
                        <path d="M18.6099643,122.655956 L18.6099643,46.7159563 C18.6099643,45.5839563 19.7169643,44.7819563 20.7929643,45.1359563 L76.9309643,63.5869563 C77.6139643,63.8109563 78.0749643,64.4489563 78.0749643,65.1669563 L78.0749643,141.891956 C78.0749643,143.033956 76.9519643,143.835956 75.8729643,143.465956 L19.7339643,124.228956 C19.0619643,123.998956 18.6099643,123.366956 18.6099643,122.655956 Z" id="Stroke-23" stroke="#00A7E2"></path>
                        <polygon id="Fill-25" fill="#FFFFFF" points="84.7280643 143.776056 84.7280643 117.719056 104.169064 111.374056 104.169064 137.161056"></polygon>
                        <polygon id="Stroke-27" stroke="#00A7E2" points="84.7280643 143.776056 84.7280643 117.719056 104.169064 111.374056 104.169064 137.161056"></polygon>
                        <path d="M112.169464,97.1530563 L112.169464,81.5090563 C112.169464,80.6400563 112.731464,79.8700563 113.559464,79.6050563 L125.164464,75.8850563 C125.166464,75.8870563 125.167464,75.8880563 125.169464,75.8890563 L125.169464,91.3750563 C125.169464,92.2350563 124.619464,92.9990563 123.803464,93.2710563 L112.175464,97.1570563 C112.172464,97.1550563 112.172464,97.1540563 112.169464,97.1530563" id="Fill-29" fill="#FFFFFF"></path>
                        <path d="M112.169464,97.1530563 L112.169464,81.5090563 C112.169464,80.6400563 112.731464,79.8700563 113.559464,79.6050563 L125.164464,75.8850563 C125.166464,75.8870563 125.167464,75.8880563 125.169464,75.8890563 L125.169464,91.3750563 C125.169464,92.2350563 124.619464,92.9990563 123.803464,93.2710563 L112.175464,97.1570563 C112.172464,97.1550563 112.172464,97.1540563 112.169464,97.1530563 Z" id="Stroke-31" stroke="#00A7E2"></path>
                        <path d="M125.169464,76.0182563 L125.169464,50.9272563 L144.169464,44.8162563 L144.169464,69.6442563 C144.169464,69.6462563 144.168464,69.6482563 144.166464,69.6482563 L125.169464,76.0182563 Z" id="Fill-33" fill="#FFFFFF"></path>
                        <path d="M125.169464,76.0182563 L125.169464,50.9272563 L144.169464,44.8162563 L144.169464,69.6442563 C144.169464,69.6462563 144.168464,69.6482563 144.166464,69.6482563 L125.169464,76.0182563 Z" id="Stroke-35" stroke="#00A7E2"></path>
                        <path d="M104.169464,111.111056 L104.169464,101.129056 C104.169464,100.277056 104.709464,99.5190563 105.514464,99.2400563 L112.169464,96.9280563 L112.169464,106.813056 C112.169464,107.655056 111.642464,108.407056 110.850464,108.693056 L104.169464,111.111056 Z" id="Fill-37" fill="#FFFFFF"></path>
                        <path d="M104.169464,111.111056 L104.169464,101.129056 C104.169464,100.277056 104.709464,99.5190563 105.514464,99.2400563 L112.169464,96.9280563 L112.169464,106.813056 C112.169464,107.655056 111.642464,108.407056 110.850464,108.693056 L104.169464,111.111056 Z" id="Stroke-39" stroke="#00A7E2"></path>
                    </g>
                </g>
            </g>
        </g>
    </g>
</svg>