<?xml version="1.0" encoding="UTF-8"?>
<svg width="200px" height="200px" viewBox="0 0 200 200" version="1.1" xmlns="http://www.w3.org/2000/svg" xmlns:xlink="http://www.w3.org/1999/xlink">
    <title>59AA9E82-3D60-40D2-86AA-C0477BBD0425</title>
    <g id="💰-16.-Budgets-&amp;-Bids" stroke="none" stroke-width="1" fill="none" fill-rule="evenodd">
        <g id="16.1.2.0-Bid---Initial-•-Empty-State" transform="translate(-88.000000, -206.000000)">
            <g id="Main-Content" transform="translate(0.000000, 96.000000)">
                <g id="EmptyState-/-Bids" transform="translate(88.000000, 110.000000)">
                    <g id="Group-63" transform="translate(10.000000, 36.000000)">
                        <path d="M157.658818,24.1096 C157.658818,34.7896 148.998818,43.4496 138.318818,43.4496 C127.638818,43.4496 118.978818,34.7896 118.978818,24.1096 C118.978818,13.4296 127.638818,4.7696 138.318818,4.7696 C148.998818,4.7696 157.658818,13.4296 157.658818,24.1096 Z" id="Stroke-1" stroke="#D3D9DB"></path>
                        <path d="M157.658818,24.1096 C157.658818,34.7896 148.998818,43.4496 138.318818,43.4496 C127.638818,43.4496 118.978818,34.7896 118.978818,24.1096 C118.978818,13.4296 127.638818,4.7696 138.318818,4.7696 C148.998818,4.7696 157.658818,13.4296 157.658818,24.1096" id="Fill-3" fill="#FFFFFF"></path>
                        <path d="M157.658818,24.1096 C157.658818,34.7896 148.998818,43.4496 138.318818,43.4496 C127.638818,43.4496 118.978818,34.7896 118.978818,24.1096 C118.978818,13.4296 127.638818,4.7696 138.318818,4.7696 C148.998818,4.7696 157.658818,13.4296 157.658818,24.1096 Z" id="Stroke-5" stroke="#D3D9DB"></path>
                        <path d="M138.318918,43.45 C127.638918,43.45 118.978918,34.79 118.978918,24.11 C118.978918,13.43 127.638918,4.77 138.318918,4.77 C148.998918,4.77 157.658918,13.43 157.658918,24.11 C157.658918,34.79 148.998918,43.45 138.318918,43.45 M138.318918,0 C124.998918,0 114.208918,10.8 114.208918,24.11 C114.208918,36.49 123.528918,46.68 135.538918,48.06 L135.538918,74.73 C135.538918,76.06 136.608918,77.14 137.948918,77.14 L138.328918,77.14 C139.658918,77.14 140.738918,76.06 140.738918,74.73 L140.738918,48.1 C152.918918,46.88 162.428918,36.61 162.428918,24.11 C162.428918,10.8 151.628918,0 138.318918,0" id="Fill-7" fill="#FFFFFF"></path>
                        <path d="M138.318918,43.45 C127.638918,43.45 118.978918,34.79 118.978918,24.11 C118.978918,13.43 127.638918,4.77 138.318918,4.77 C148.998918,4.77 157.658918,13.43 157.658918,24.11 C157.658918,34.79 148.998918,43.45 138.318918,43.45 Z M138.318918,0 C124.998918,0 114.208918,10.8 114.208918,24.11 C114.208918,36.49 123.528918,46.68 135.538918,48.06 L135.538918,74.73 C135.538918,76.06 136.608918,77.14 137.948918,77.14 L138.328918,77.14 C139.658918,77.14 140.738918,76.06 140.738918,74.73 L140.738918,48.1 C152.918918,46.88 162.428918,36.61 162.428918,24.11 C162.428918,10.8 151.628918,0 138.318918,0 Z" id="Stroke-9" stroke="#D3D9DB"></path>
                        <path d="M139.746718,25.3587 C139.746718,24.9997 139.620718,24.6967 139.368718,24.4507 C139.116718,24.2047 138.691718,23.9817 138.094718,23.7827 C137.262718,23.5287 136.655718,23.1977 136.274718,22.7897 C135.893718,22.3807 135.703718,21.8627 135.703718,21.2337 C135.703718,20.5927 135.890718,20.0677 136.263718,19.6577 C136.636718,19.2477 137.148718,19.0037 137.801718,18.9247 L137.801718,17.6417 L138.674718,17.6417 L138.674718,18.9307 C139.330718,19.0207 139.841718,19.2967 140.206718,19.7567 C140.571718,20.2177 140.754718,20.8487 140.754718,21.6497 L139.676718,21.6497 C139.676718,21.0967 139.545718,20.6587 139.283718,20.3327 C139.021718,20.0077 138.668718,19.8447 138.223718,19.8447 C137.758718,19.8447 137.402718,19.9657 137.156718,20.2057 C136.910718,20.4467 136.787718,20.7817 136.787718,21.2127 C136.787718,21.6117 136.917718,21.9297 137.177718,22.1667 C137.436718,22.4037 137.864718,22.6187 138.460718,22.8127 C139.056718,23.0057 139.520718,23.2187 139.854718,23.4517 C140.188718,23.6837 140.434718,23.9547 140.593718,24.2627 C140.751718,24.5717 140.830718,24.9327 140.830718,25.3467 C140.830718,26.0067 140.632718,26.5387 140.235718,26.9407 C139.839718,27.3427 139.283718,27.5817 138.568718,27.6557 L138.568718,28.7747 L137.701718,28.7747 L137.701718,27.6557 C136.975718,27.5887 136.405718,27.3307 135.993718,26.8797 C135.581718,26.4277 135.375718,25.8157 135.375718,25.0427 L136.459718,25.0427 C136.459718,25.5857 136.601718,26.0037 136.887718,26.2957 C137.172718,26.5887 137.576718,26.7357 138.100718,26.7357 C138.611718,26.7357 139.014718,26.6127 139.307718,26.3667 C139.600718,26.1207 139.746718,25.7847 139.746718,25.3587" id="Fill-11" fill="#D3D9DB"></path>
                        <path d="M94.8087178,51.2913 L57.6907178,85.2163 C57.2847178,85.5873 56.6537178,85.5593 56.2817178,85.1533 L40.4127178,67.7893 C40.0407178,67.3833 40.0687178,66.7523 40.4757178,66.3803 L77.5937178,32.4563 C77.9997178,32.0843 78.6307178,32.1123 79.0027178,32.5193 L94.8717178,49.8823 C95.2437178,50.2893 95.2157178,50.9193 94.8087178,51.2913" id="Fill-13" fill="#BCECF7"></path>
                        <path d="M94.8087178,51.2913 L57.6907178,85.2163 C57.2847178,85.5873 56.6537178,85.5593 56.2817178,85.1533 L40.4127178,67.7893 C40.0407178,67.3833 40.0687178,66.7523 40.4757178,66.3803 L77.5937178,32.4563 C77.9997178,32.0843 78.6307178,32.1123 79.0027178,32.5193 L94.8717178,49.8823 C95.2437178,50.2893 95.2157178,50.9193 94.8087178,51.2913 Z" id="Stroke-15" stroke="#00A7E2"></path>
                        <path d="M103.880518,49.4729 L100.541518,52.5249 C99.5625178,53.4199 98.0425178,53.3519 97.1485178,52.3719 L76.7265178,30.0299 C75.8325178,29.0499 75.9005178,27.5309 76.8795178,26.6359 L80.2185178,23.5839 C81.1975178,22.6889 82.7175178,22.7569 83.6115178,23.7369 L104.032518,46.0799 C104.927518,47.0589 104.859518,48.5779 103.880518,49.4729" id="Fill-17" fill="#E5F6FC"></path>
                        <path d="M103.880518,49.4729 L100.541518,52.5249 C99.5625178,53.4199 98.0425178,53.3519 97.1485178,52.3719 L76.7265178,30.0299 C75.8325178,29.0499 75.9005178,27.5309 76.8795178,26.6359 L80.2185178,23.5839 C81.1975178,22.6889 82.7175178,22.7569 83.6115178,23.7369 L104.032518,46.0799 C104.927518,47.0589 104.859518,48.5779 103.880518,49.4729 Z" id="Stroke-19" stroke="#00A7E2"></path>
                        <path d="M58.4063178,91.0349 L55.0643178,94.0889 C54.0863178,94.9839 52.5683178,94.9149 51.6733178,93.9369 L31.2503178,71.5919 C30.3563178,70.6129 30.4243178,69.0949 31.4033178,68.1999 L34.7443178,65.1459 C35.7233178,64.2519 37.2413178,64.3199 38.1353178,65.2989 L58.5583178,87.6439 C59.4533178,88.6219 59.3853178,90.1409 58.4063178,91.0349" id="Fill-21" fill="#E5F6FC"></path>
                        <path d="M58.4063178,91.0349 L55.0643178,94.0889 C54.0863178,94.9839 52.5683178,94.9149 51.6733178,93.9369 L31.2503178,71.5919 C30.3563178,70.6129 30.4243178,69.0949 31.4033178,68.1999 L34.7443178,65.1459 C35.7233178,64.2519 37.2413178,64.3199 38.1353178,65.2989 L58.5583178,87.6439 C59.4533178,88.6219 59.3853178,90.1409 58.4063178,91.0349 Z" id="Stroke-23" stroke="#00A7E2"></path>
                        <path d="M114.232018,106.4695 L110.904018,109.5115 C109.921018,110.4095 108.398018,110.3405 107.500018,109.3585 L74.4330178,73.1785 C73.5350178,72.1965 73.6040178,70.6725 74.5860178,69.7745 L77.9140178,66.7325 C78.8960178,65.8355 80.4200178,65.9035 81.3180178,66.8855 L114.385018,103.0655 C115.283018,104.0485 115.214018,105.5715 114.232018,106.4695 Z" id="Stroke-25" stroke="#00A7E2" fill="#EAF7FD"></path>
                        <path d="M56.8077178,118.7674 L56.8077178,126.0914 C56.8077178,126.6444 56.3597178,127.0934 55.8057178,127.0934 L5.4327178,127.0934 C4.8787178,127.0934 4.4307178,126.6444 4.4307178,126.0914 L4.4307178,118.7674 C4.4307178,118.2144 4.8787178,117.7664 5.4327178,117.7664 L55.8057178,117.7664 C56.3597178,117.7664 56.8077178,118.2144 56.8077178,118.7674 Z" id="Stroke-27" stroke="#00A7E2"></path>
                        <path d="M47.6085178,109.4397 L47.6085178,116.7637 C47.6085178,117.3167 47.1595178,117.7657 46.6065178,117.7657 L14.6315178,117.7657 C14.0785178,117.7657 13.6295178,117.3167 13.6295178,116.7637 L13.6295178,109.4397 C13.6295178,108.8867 14.0785178,108.4377 14.6315178,108.4377 L46.6065178,108.4377 C47.1595178,108.4377 47.6085178,108.8867 47.6085178,109.4397 Z" id="Stroke-29" stroke="#00A7E2"></path>
                        <path d="M175.126518,74.0633 C175.126518,84.7433 166.466518,93.4033 155.786518,93.4033 C145.106518,93.4033 136.446518,84.7433 136.446518,74.0633 C136.446518,63.3833 145.106518,54.7233 155.786518,54.7233 C166.466518,54.7233 175.126518,63.3833 175.126518,74.0633 Z" id="Stroke-31" stroke="#D3D9DB"></path>
                        <path d="M175.126518,74.0633 C175.126518,84.7433 166.466518,93.4033 155.786518,93.4033 C145.106518,93.4033 136.446518,84.7433 136.446518,74.0633 C136.446518,63.3833 145.106518,54.7233 155.786518,54.7233 C166.466518,54.7233 175.126518,63.3833 175.126518,74.0633" id="Fill-33" fill="#FFFFFF"></path>
                        <path d="M175.126518,74.0633 C175.126518,84.7433 166.466518,93.4033 155.786518,93.4033 C145.106518,93.4033 136.446518,84.7433 136.446518,74.0633 C136.446518,63.3833 145.106518,54.7233 155.786518,54.7233 C166.466518,54.7233 175.126518,63.3833 175.126518,74.0633 Z" id="Stroke-35" stroke="#D3D9DB"></path>
                        <path d="M155.786718,93.4036 C145.106718,93.4036 136.446718,84.7436 136.446718,74.0636 C136.446718,63.3836 145.106718,54.7236 155.786718,54.7236 C166.466718,54.7236 175.126718,63.3836 175.126718,74.0636 C175.126718,84.7436 166.466718,93.4036 155.786718,93.4036 M155.786718,49.9536 C142.466718,49.9536 131.676718,60.7536 131.676718,74.0636 C131.676718,86.4436 140.996718,96.6336 153.006718,98.0136 L153.006718,124.6836 C153.006718,126.0136 154.076718,127.0936 155.416718,127.0936 L155.796718,127.0936 C157.126718,127.0936 158.206718,126.0136 158.206718,124.6836 L158.206718,98.0536 C170.386718,96.8336 179.896718,86.5636 179.896718,74.0636 C179.896718,60.7536 169.096718,49.9536 155.786718,49.9536" id="Fill-37" fill="#FFFFFF"></path>
                        <path d="M155.786718,93.4036 C145.106718,93.4036 136.446718,84.7436 136.446718,74.0636 C136.446718,63.3836 145.106718,54.7236 155.786718,54.7236 C166.466718,54.7236 175.126718,63.3836 175.126718,74.0636 C175.126718,84.7436 166.466718,93.4036 155.786718,93.4036 Z M155.786718,49.9536 C142.466718,49.9536 131.676718,60.7536 131.676718,74.0636 C131.676718,86.4436 140.996718,96.6336 153.006718,98.0136 L153.006718,124.6836 C153.006718,126.0136 154.076718,127.0936 155.416718,127.0936 L155.796718,127.0936 C157.126718,127.0936 158.206718,126.0136 158.206718,124.6836 L158.206718,98.0536 C170.386718,96.8336 179.896718,86.5636 179.896718,74.0636 C179.896718,60.7536 169.096718,49.9536 155.786718,49.9536 Z" id="Stroke-39" stroke="#D3D9DB"></path>
                        <path d="M157.214418,75.3123 C157.214418,74.9533 157.088418,74.6503 156.836418,74.4043 C156.584418,74.1583 156.159418,73.9353 155.562418,73.7363 C154.730418,73.4823 154.123418,73.1513 153.742418,72.7433 C153.361418,72.3343 153.171418,71.8163 153.171418,71.1873 C153.171418,70.5463 153.358418,70.0213 153.731418,69.6113 C154.104418,69.2013 154.616418,68.9573 155.269418,68.8783 L155.269418,67.5953 L156.142418,67.5953 L156.142418,68.8843 C156.798418,68.9743 157.309418,69.2503 157.674418,69.7103 C158.039418,70.1713 158.222418,70.8023 158.222418,71.6033 L157.144418,71.6033 C157.144418,71.0503 157.013418,70.6123 156.751418,70.2863 C156.489418,69.9613 156.136418,69.7983 155.691418,69.7983 C155.226418,69.7983 154.870418,69.9193 154.624418,70.1593 C154.378418,70.4003 154.255418,70.7353 154.255418,71.1663 C154.255418,71.5653 154.385418,71.8833 154.645418,72.1203 C154.904418,72.3573 155.332418,72.5723 155.928418,72.7663 C156.524418,72.9593 156.988418,73.1723 157.322418,73.4053 C157.656418,73.6373 157.902418,73.9083 158.061418,74.2163 C158.219418,74.5253 158.298418,74.8863 158.298418,75.3003 C158.298418,75.9603 158.100418,76.4923 157.703418,76.8943 C157.307418,77.2963 156.751418,77.5353 156.036418,77.6093 L156.036418,78.7283 L155.169418,78.7283 L155.169418,77.6093 C154.443418,77.5423 153.873418,77.2843 153.461418,76.8333 C153.049418,76.3813 152.843418,75.7693 152.843418,74.9963 L153.927418,74.9963 C153.927418,75.5393 154.069418,75.9573 154.355418,76.2493 C154.640418,76.5423 155.044418,76.6893 155.568418,76.6893 C156.079418,76.6893 156.482418,76.5663 156.775418,76.3203 C157.068418,76.0743 157.214418,75.7383 157.214418,75.3123" id="Fill-41" fill="#D3D9DB"></path>
                        <path d="M13.9498178,88.0076 L15.0868178,90.3116 C15.2548178,90.6516 15.5788178,90.8866 15.9538178,90.9416 L18.4968178,91.3116 C19.4408178,91.4486 19.8178178,92.6086 19.1348178,93.2746 L17.2948178,95.0686 C17.0238178,95.3326 16.8998178,95.7136 16.9638178,96.0876 L17.3978178,98.6196 C17.5588178,99.5606 16.5728178,100.2776 15.7278178,99.8336 L13.4528178,98.6376 C13.1178178,98.4616 12.7178178,98.4616 12.3818178,98.6376 L10.1078178,99.8336 C9.2628178,100.2776 8.2758178,99.5606 8.4368178,98.6196 L8.8718178,96.0876 C8.9358178,95.7136 8.8118178,95.3326 8.5408178,95.0686 L6.6998178,93.2746 C6.0168178,92.6086 6.3938178,91.4486 7.3388178,91.3116 L9.8818178,90.9416 C10.2568178,90.8866 10.5808178,90.6516 10.7478178,90.3116 L11.8858178,88.0076 C12.3078178,87.1526 13.5278178,87.1526 13.9498178,88.0076" id="Fill-43" fill="#FFFFFF"></path>
                        <path d="M12.9498178,81.0076 L14.0868178,83.3116 C14.2548178,83.6516 14.5788178,83.8866 14.9538178,83.9416 L17.4968178,84.3116 C18.4408178,84.4486 18.8178178,85.6086 18.1348178,86.2746 L16.2948178,88.0686 C16.0238178,88.3326 15.8998178,88.7136 15.9638178,89.0876 L16.3978178,91.6196 C16.5588178,92.5606 15.5728178,93.2776 14.7278178,92.8336 L12.4528178,91.6376 C12.1178178,91.4616 11.7178178,91.4616 11.3818178,91.6376 L9.1078178,92.8336 C8.2628178,93.2776 7.2758178,92.5606 7.4368178,91.6196 L7.8718178,89.0876 C7.9358178,88.7136 7.8118178,88.3326 7.5408178,88.0686 L5.6998178,86.2746 C5.0168178,85.6086 5.3938178,84.4486 6.3388178,84.3116 L8.8818178,83.9416 C9.2568178,83.8866 9.5808178,83.6516 9.7478178,83.3116 L10.8858178,81.0076 C11.3078178,80.1526 12.5278178,80.1526 12.9498178,81.0076 Z" id="Stroke-45" stroke="#D3D9DB" stroke-width="0.75"></path>
                        <path d="M4.9693178,72.6985 L5.5633178,73.9025 C5.6513178,74.0795 5.8203178,74.2025 6.0163178,74.2305 L7.3443178,74.4245 C7.8373178,74.4955 8.0343178,75.1015 7.6773178,75.4495 L6.7163178,76.3865 C6.5743178,76.5245 6.5103178,76.7235 6.5433178,76.9185 L6.7703178,78.2415 C6.8543178,78.7325 6.3393178,79.1075 5.8983178,78.8755 L4.7103178,78.2505 C4.5343178,78.1585 4.3253178,78.1585 4.1503178,78.2505 L2.9623178,78.8755 C2.5213178,79.1075 2.0053178,78.7325 2.0903178,78.2415 L2.3173178,76.9185 C2.3503178,76.7235 2.2853178,76.5245 2.1443178,76.3865 L1.1823178,75.4495 C0.825317798,75.1015 1.0223178,74.4955 1.5153178,74.4245 L2.8443178,74.2305 C3.0403178,74.2025 3.2093178,74.0795 3.2973178,73.9025 L3.8913178,72.6985 C4.1113178,72.2515 4.7483178,72.2515 4.9693178,72.6985" id="Fill-47" fill="#FFFFFF"></path>
                        <path d="M3.9693178,62.6985 L4.5633178,63.9025 C4.6513178,64.0795 4.8203178,64.2025 5.0163178,64.2305 L6.3443178,64.4245 C6.8373178,64.4955 7.0343178,65.1015 6.6773178,65.4495 L5.7163178,66.3865 C5.5743178,66.5245 5.5103178,66.7235 5.5433178,66.9185 L5.7703178,68.2415 C5.8543178,68.7325 5.3393178,69.1075 4.8983178,68.8755 L3.7103178,68.2505 C3.5343178,68.1585 3.3253178,68.1585 3.1503178,68.2505 L1.9623178,68.8755 C1.5213178,69.1075 1.0053178,68.7325 1.0903178,68.2415 L1.3173178,66.9185 C1.3503178,66.7235 1.2853178,66.5245 1.1443178,66.3865 L0.182317798,65.4495 C-0.174682202,65.1015 0.0223177983,64.4955 0.515317798,64.4245 L1.8443178,64.2305 C2.0403178,64.2025 2.2093178,64.0795 2.2973178,63.9025 L2.8913178,62.6985 C3.1113178,62.2515 3.7483178,62.2515 3.9693178,62.6985 Z" id="Stroke-49" stroke="#D3D9DB" stroke-width="0.75"></path>
                        <path d="M20.6700178,9.6316 L21.2640178,10.8356 C21.3520178,11.0126 21.5210178,11.1356 21.7170178,11.1646 L23.0450178,11.3576 C23.5380178,11.4286 23.7350178,12.0346 23.3780178,12.3826 L22.4170178,13.3196 C22.2750178,13.4576 22.2110178,13.6566 22.2440178,13.8516 L22.4710178,15.1746 C22.5550178,15.6666 22.0400178,16.0406 21.5990178,15.8086 L20.4110178,15.1846 C20.2350178,15.0916 20.0260178,15.0916 19.8510178,15.1846 L18.6630178,15.8086 C18.2220178,16.0406 17.7060178,15.6666 17.7910178,15.1746 L18.0170178,13.8516 C18.0510178,13.6566 17.9860178,13.4576 17.8440178,13.3196 L16.8830178,12.3826 C16.5260178,12.0346 16.7230178,11.4286 17.2160178,11.3576 L18.5450178,11.1646 C18.7410178,11.1356 18.9100178,11.0126 18.9980178,10.8356 L19.5910178,9.6316 C19.8120178,9.1846 20.4490178,9.1846 20.6700178,9.6316" id="Fill-51" fill="#FFFFFF"></path>
                        <path d="M6.0128178,53.1345 L6.4688178,54.0565 C6.5348178,54.1935 6.6648178,54.2875 6.8148178,54.3095 L7.8338178,54.4575 C8.2118178,54.5115 8.3628178,54.9765 8.0888178,55.2435 L7.3518178,55.9615 C7.2428178,56.0675 7.1938178,56.2195 7.2198178,56.3695 L7.3938178,57.3845 C7.4578178,57.7605 7.0628178,58.0475 6.7248178,57.8695 L5.8138178,57.3905 C5.6798178,57.3205 5.5188178,57.3205 5.3848178,57.3905 L4.4738178,57.8695 C4.1358178,58.0475 3.7408178,57.7605 3.8048178,57.3845 L3.9788178,56.3695 C4.0048178,56.2195 3.9548178,56.0675 3.8468178,55.9615 L3.1098178,55.2435 C2.8368178,54.9765 2.9878178,54.5115 3.3658178,54.4575 L4.3838178,54.3095 C4.5338178,54.2875 4.6638178,54.1935 4.7308178,54.0565 L5.1858178,53.1345 C5.3548178,52.7915 5.8438178,52.7915 6.0128178,53.1345" id="Fill-55" fill="#FFFFFF"></path>
                        <path d="M5.0128178,44.1345 L5.4688178,45.0565 C5.5348178,45.1935 5.6648178,45.2875 5.8148178,45.3095 L6.8338178,45.4575 C7.2118178,45.5115 7.3628178,45.9765 7.0888178,46.2435 L6.3518178,46.9615 C6.2428178,47.0675 6.1938178,47.2195 6.2198178,47.3695 L6.3938178,48.3845 C6.4578178,48.7605 6.0628178,49.0475 5.7248178,48.8695 L4.8138178,48.3905 C4.6798178,48.3205 4.5188178,48.3205 4.3848178,48.3905 L3.4738178,48.8695 C3.1358178,49.0475 2.7408178,48.7605 2.8048178,48.3845 L2.9788178,47.3695 C3.0048178,47.2195 2.9548178,47.0675 2.8468178,46.9615 L2.1098178,46.2435 C1.8368178,45.9765 1.9878178,45.5115 2.3658178,45.4575 L3.3838178,45.3095 C3.5338178,45.2875 3.6638178,45.1935 3.7308178,45.0565 L4.1858178,44.1345 C4.3548178,43.7915 4.8438178,43.7915 5.0128178,44.1345 Z" id="Stroke-57" stroke="#D3D9DB" stroke-width="0.75"></path>
                        <path d="M13.0181178,33.221 L13.3681178,33.93 C13.4191178,34.034 13.5191178,34.107 13.6351178,34.124 L14.4171178,34.238 C14.7081178,34.28 14.8241178,34.637 14.6141178,34.842 L14.0471178,35.394 C13.9641178,35.475 13.9261178,35.593 13.9451178,35.707 L14.0791178,36.487 C14.1291178,36.776 13.8251178,36.997 13.5651178,36.86 L12.8651178,36.492 C12.7621178,36.438 12.6391178,36.438 12.5361178,36.492 L11.8351178,36.86 C11.5761178,36.997 11.2721178,36.776 11.3221178,36.487 L11.4561178,35.707 C11.4751178,35.593 11.4371178,35.475 11.3531178,35.394 L10.7871178,34.842 C10.5771178,34.637 10.6931178,34.28 10.9831178,34.238 L11.7661178,34.124 C11.8811178,34.107 11.9811178,34.034 12.0331178,33.93 L12.3831178,33.221 C12.5131178,32.958 12.8881178,32.958 13.0181178,33.221" id="Fill-59" fill="#FFFFFF"></path>
                        <path d="M13.0181178,24.221 L13.3681178,24.93 C13.4191178,25.034 13.5191178,25.107 13.6351178,25.124 L14.4171178,25.238 C14.7081178,25.28 14.8241178,25.637 14.6141178,25.842 L14.0471178,26.394 C13.9641178,26.475 13.9261178,26.593 13.9451178,26.707 L14.0791178,27.487 C14.1291178,27.776 13.8251178,27.997 13.5651178,27.86 L12.8651178,27.492 C12.7621178,27.438 12.6391178,27.438 12.5361178,27.492 L11.8351178,27.86 C11.5761178,27.997 11.2721178,27.776 11.3221178,27.487 L11.4561178,26.707 C11.4751178,26.593 11.4371178,26.475 11.3531178,26.394 L10.7871178,25.842 C10.5771178,25.637 10.6931178,25.28 10.9831178,25.238 L11.7661178,25.124 C11.8811178,25.107 11.9811178,25.034 12.0331178,24.93 L12.3831178,24.221 C12.5131178,23.958 12.8881178,23.958 13.0181178,24.221 Z" id="Stroke-61" stroke="#D3D9DB" stroke-width="0.75"></path>
                    </g>
                </g>
            </g>
        </g>
    </g>
</svg>